<svg xmlns="http://www.w3.org/2000/svg" viewBox="0 0 320 200" width="320" height="200" preserveAspectRatio="xMidYMid meet">
<rect width="320" height="200" fill="#fff"/>
<ellipse cx="160" cy="174" rx="134" ry="14" fill="#eceff1"/><rect x="106" y="94" width="8" height="60" fill="#8d6e63"/><rect x="206" y="94" width="8" height="60" fill="#8d6e63"/><rect x="90" y="112" width="9" height="62" fill="#a1887f"/><rect x="221" y="112" width="9" height="62" fill="#a1887f"/><polygon points="105,88 215,88 235,112 85,112" fill="#bcaaa4"/><polygon points="85,112 235,112 235,120 85,120" fill="#a1887f"/><rect x="137" y="56" width="46" height="32" rx="3" fill="#1e88e5"/><rect x="137" y="56" width="10.1" height="32" rx="3" fill="#1565c0"/><line x1="150.8" y1="66.9" x2="175.6" y2="66.9" stroke="#fff" stroke-width="2" opacity=".9"/><line x1="150.8" y1="73.3" x2="175.6" y2="73.3" stroke="#fff" stroke-width="2" opacity=".9"/><line x1="150.8" y1="79.7" x2="175.6" y2="79.7" stroke="#fff" stroke-width="2" opacity=".9"/>
</svg>
