<svg xmlns="http://www.w3.org/2000/svg" viewBox="0 0 320 200" width="320" height="200" preserveAspectRatio="xMidYMid meet">
<rect width="320" height="200" fill="#fff"/>
<ellipse cx="160" cy="174" rx="134" ry="14" fill="#eceff1"/><rect x="106" y="94" width="8" height="60" fill="#8d6e63"/><rect x="206" y="94" width="8" height="60" fill="#8d6e63"/><rect x="90" y="112" width="9" height="62" fill="#a1887f"/><rect x="221" y="112" width="9" height="62" fill="#a1887f"/><polygon points="105,88 215,88 235,112 85,112" fill="#bcaaa4"/><polygon points="85,112 235,112 235,120 85,120" fill="#a1887f"/><path d="M18.4 142 L24 118 L34.4 132 Z" fill="#ffb300"/><path d="M53.6 142 L48 118 L37.6 132 Z" fill="#ffb300"/><circle cx="36" cy="150" r="20" fill="#ffc107"/><circle cx="28.4" cy="147.6" r="2.6" fill="#3e2723"/><circle cx="43.6" cy="147.6" r="2.6" fill="#3e2723"/><path d="M31.6 156 q 4.4 5.2 8.8 0" stroke="#3e2723" stroke-width="1.6" fill="none" stroke-linecap="round"/><line x1="18" y1="152.4" x2="5" y2="149" stroke="#8d6e63" stroke-width="1.2"/><line x1="54" y1="152.4" x2="67" y2="149" stroke="#8d6e63" stroke-width="1.2"/>
</svg>
