<svg xmlns="http://www.w3.org/2000/svg" viewBox="0 0 320 180" width="320" height="180" preserveAspectRatio="xMidYMid meet">
<rect width="320" height="180" fill="#fff"/>
<text x="10" y="20" font-size="13" fill="#333">洋葱表皮细胞（装片观察）</text>
<g stroke="#388e3c" stroke-width="2" fill="#e8f5e9">
<rect x="40" y="40" width="50" height="35"/>
<rect x="90" y="40" width="50" height="35"/>
<rect x="140" y="40" width="50" height="35"/>
<rect x="190" y="40" width="50" height="35"/>
<rect x="40" y="75" width="50" height="35"/>
<rect x="90" y="75" width="50" height="35"/>
<rect x="140" y="75" width="50" height="35"/>
<rect x="190" y="75" width="50" height="35"/>
</g>
<g fill="#c62828">
<circle cx="65" cy="57" r="6"/><circle cx="115" cy="57" r="6"/><circle cx="165" cy="57" r="6"/><circle cx="215" cy="57" r="6"/>
<circle cx="65" cy="92" r="6"/><circle cx="115" cy="92" r="6"/><circle cx="165" cy="92" r="6"/><circle cx="215" cy="92" r="6"/>
</g>
<text x="20" y="140" font-size="11" fill="#333">每个小格是一个细胞；红点=细胞核；外框=细胞壁</text>
<text x="20" y="160" font-size="11" fill="#333">细胞是生物体结构和功能的基本单位</text>
</svg>
